<?xml version="1.0" encoding="UTF-8"?>
<svg id="Logos" xmlns="http://www.w3.org/2000/svg" viewBox="0 0 416 416">
  <defs>
    <style>
      .cls-1 {
        fill: #000;
        stroke-width: 0px;
      }
    </style>
  </defs>
  <path class="cls-1" d="M416.04,227.73l-4.14-15.46-122.49,32.82,124.41-71.83-8-13.86-109.82,63.4,101.58-101.58-11.31-11.31-89.67,89.67,71.83-124.41-13.86-8-63.4,109.82,37.18-138.77-15.46-4.14-32.82,122.49V12.91h-16v126.81L226.9.95l-15.46,4.14,32.82,122.49L172.43,3.17l-13.86,8,63.4,109.82L120.4,19.4l-11.31,11.31,89.67,89.67L74.34,48.55l-8,13.86,109.82,63.4L37.39,88.63l-4.14,15.46,122.49,32.82H12.08v16h126.81L.12,190.09l4.14,15.46,122.49-32.82L2.34,244.55l8,13.86,109.82-63.4-101.58,101.58,11.31,11.31,89.67-89.67-71.83,124.41,13.86,8,74.5-129.03v183.29h16v-126.81l37.18,138.76,15.46-4.14-32.82-122.49,71.83,124.41,13.86-8-63.4-109.82,101.58,101.58,11.31-11.31-89.67-89.67,124.41,71.83,8-13.86-109.82-63.4,138.77,37.18,4.14-15.46-122.49-32.82h143.66v-16h-126.81l138.76-37.18ZM144.11,207.7c0,.4-.03.8-.03,1.2h-.66l.69-1.2Z"/>
</svg>