<?xml version="1.0" encoding="UTF-8"?>
<svg id="Logos" xmlns="http://www.w3.org/2000/svg" viewBox="0 0 416 416">
  <defs>
    <style>
      .cls-1 {
        fill: #4f9dd3;
        stroke-width: 0px;
      }
    </style>
  </defs>
  <path class="cls-1" d="M416,200h-147.23l142.22-38.11-4.14-15.46-142.22,38.11,127.51-73.62-8-13.86-127.51,73.62,104.11-104.11-11.31-11.31-104.11,104.11,73.62-127.51-13.86-8-73.62,127.51L269.56,9.16l-15.46-4.14-38.11,142.22V0h-16v147.23L161.89,5.02l-15.46,4.14,38.11,142.22L110.93,23.87l-13.86,8,73.62,127.51L66.58,55.26l-11.31,11.31,104.11,104.11L31.87,97.07l-8,13.86,127.51,73.62L9.16,146.44l-4.14,15.46,142.22,38.11H0v16h147.23L5.02,254.11l4.14,15.46,142.22-38.11-127.51,73.62,8,13.86,127.51-73.62-104.11,104.11,11.31,11.31,104.11-104.11-73.62,127.51,13.86,8,73.62-127.51-38.11,142.22,15.46,4.14,38.11-142.22v147.23h16v-147.23l38.11,142.22,15.46-4.14-38.11-142.22,73.62,127.51,13.86-8-73.62-127.51,104.11,104.11,11.31-11.31-104.11-104.11,127.51,73.62,8-13.86-127.51-73.62,142.22,38.11,4.14-15.46-142.22-38.11h147.23v-16ZM208,256c-26.51,0-48-21.49-48-48s21.49-48,48-48,48,21.49,48,48-21.49,48-48,48Z"/>
</svg>