<?xml version="1.0" encoding="UTF-8"?>
<svg id="Logos" xmlns="http://www.w3.org/2000/svg" viewBox="0 0 416 416">
  <defs>
    <style>
      .cls-1 {
        fill: #000;
        stroke-width: 0px;
      }
    </style>
  </defs>
  <polygon class="cls-1" points="256.49 370.69 360.6 266.58 349.29 255.26 245.18 359.37 318.79 231.87 304.94 223.87 231.32 351.38 269.43 209.16 253.97 205.02 215.87 347.23 215.87 212.62 392 110.93 384 97.07 256.49 170.69 360.6 66.58 349.29 55.26 245.18 159.37 318.79 31.87 304.94 23.87 231.32 151.38 269.43 9.16 253.97 5.02 215.87 147.23 215.87 0 199.87 0 199.87 147.23 161.76 5.02 146.3 9.16 184.41 151.38 110.79 23.87 96.94 31.87 170.55 159.37 66.45 55.26 55.13 66.58 159.24 170.69 31.73 97.07 23.73 110.93 199.87 212.62 199.87 347.23 161.76 205.02 146.3 209.16 184.41 351.38 110.79 223.87 96.94 231.87 170.55 359.37 66.45 255.26 55.13 266.58 159.24 370.69 31.73 297.07 23.73 310.93 203.87 414.93 211.87 414.93 392 310.93 384 297.07 256.49 370.69"/>
</svg>