<?xml version="1.0" encoding="UTF-8"?>
<svg id="Logos" xmlns="http://www.w3.org/2000/svg" viewBox="0 0 416 416">
  <defs>
    <style>
      .cls-1 {
        fill: #000;
        stroke-width: 0px;
      }
    </style>
  </defs>
  <polygon class="cls-1" points="268.77 200 410.98 161.89 406.84 146.44 264.62 184.55 392.13 110.93 384.13 97.07 256.63 170.69 360.74 66.58 349.42 55.26 245.31 159.37 318.93 31.87 305.07 23.87 231.45 151.38 269.56 9.16 254.11 5.02 216 147.23 216 0 200 0 200 147.23 161.89 5.02 146.44 9.16 184.55 151.38 110.93 23.87 97.07 31.87 170.69 159.37 66.58 55.26 55.26 66.58 159.37 170.69 31.87 97.07 23.87 110.93 151.38 184.55 9.16 146.44 5.02 161.89 147.23 200 0 200 0 216 200 216 200 416 216 416 216 216 416 216 416 200 268.77 200"/>
  <polygon class="cls-1" points="0 248 168 248 168 416 184 416 184 232 0 232 0 248"/>
  <polygon class="cls-1" points="0 280 136 280 136 416 152 416 152 264 0 264 0 280"/>
  <polygon class="cls-1" points="0 312 104 312 104 416 120 416 120 296 0 296 0 312"/>
  <polygon class="cls-1" points="232 416 248 416 248 248 416 248 416 232 232 232 232 416"/>
  <polygon class="cls-1" points="264 416 280 416 280 280 416 280 416 264 264 264 264 416"/>
  <polygon class="cls-1" points="296 416 312 416 312 312 416 312 416 296 296 296 296 416"/>
</svg>