<?xml version="1.0" encoding="UTF-8"?>
<svg id="Logos" xmlns="http://www.w3.org/2000/svg" viewBox="0 0 416 416">
  <defs>
    <style>
      .cls-1 {
        fill: #000;
        stroke-width: 0px;
      }
    </style>
  </defs>
  <polygon class="cls-1" points="416 200 268.77 200 410.98 161.89 406.84 146.44 264.62 184.55 392.13 110.93 384.13 97.07 256.63 170.69 360.74 66.58 349.42 55.26 245.31 159.37 318.93 31.87 305.07 23.87 231.45 151.38 269.56 9.16 254.11 5.02 216 147.23 216 0 200 0 200 208 200 416 216 416 216 268.77 254.11 410.98 269.56 406.84 231.45 264.62 305.07 392.13 318.93 384.13 245.31 256.63 349.42 360.74 360.74 349.42 256.63 245.31 384.13 318.93 392.13 305.07 264.62 231.45 406.84 269.56 410.98 254.11 268.77 216 416 216 416 200"/>
  <rect class="cls-1" x="168" y="0" width="16" height="416"/>
  <rect class="cls-1" x="136" y="0" width="16" height="416"/>
  <rect class="cls-1" x="104" y="0" width="16" height="416"/>
  <rect class="cls-1" x="72" y="0" width="16" height="416"/>
  <rect class="cls-1" x="40" y="0" width="16" height="416"/>
  <rect class="cls-1" x="8" y="0" width="16" height="416"/>
</svg>