<?xml version="1.0" encoding="UTF-8"?>
<svg id="Logos" xmlns="http://www.w3.org/2000/svg" viewBox="0 0 416 416">
  <defs>
    <style>
      .cls-1 {
        fill: #ebebeb;
        stroke-width: 0px;
      }
    </style>
  </defs>
  <path class="cls-1" d="M416.23,200h-148.27l-36.08-134.64,73.19,126.77.17-.1.06.1,13.86-8-73.3-126.97,103.57,103.57.11-.11.11.11,11.31-11.31-103.8-103.8,126.97,73.3.06-.1.17.1,8-13.86-127.31-73.5,141.79,37.99.02-.06.21.06,4.14-15.46-142.22-38.11h147.23V0H0v416h16v-148.27l135.38-36.27-127.51,73.62,8,13.86,127.51-73.62-104.11,104.11,11.31,11.31,104.11-104.11-73.62,127.51,13.86,8,73.62-127.51-38.11,142.22,15.46,4.14,38.11-142.22v147.23h16v-147.23l38.11,142.22.21-.06.02.06,15.46-4.14-37.91-141.48,73.19,126.77.17-.1.06.1,13.86-8-73.3-126.97,103.57,103.57.11-.11.11.11,11.31-11.31-103.8-103.8,126.97,73.3.06-.1.17.1,8-13.86-127.31-73.5,141.79,37.99.02-.06.21.06,4.14-15.46-142.22-38.11h147.23v-16ZM16,200V67.73L151.38,31.45,23.87,105.07l8,13.86,127.51-73.62-104.11,104.11,11.31,11.31,104.11-104.11-73.62,127.51,13.86,8,73.62-127.51-36.27,135.38H16ZM200,68.77v131.23h-35.16l35.16-131.23ZM16,51.16V16h131.23L16,51.16ZM216,68.77l35.16,131.23h-35.16V68.77ZM16,216h131.23L16,251.16v-35.16Z"/>
</svg>