<?xml version="1.0" encoding="UTF-8"?>
<svg id="Logos" xmlns="http://www.w3.org/2000/svg" viewBox="0 0 416 416">
  <defs>
    <style>
      .cls-1 {
        fill: #ebebeb;
        stroke-width: 0px;
      }
    </style>
  </defs>
  <polygon class="cls-1" points="416 200 268.77 200 410.98 161.89 406.84 146.44 264.62 184.55 392.13 110.93 384.13 97.07 256.63 170.69 360.74 66.58 349.42 55.26 245.31 159.37 318.93 31.87 305.07 23.87 231.45 151.38 269.56 9.16 254.11 5.02 216 147.23 216 0 200 0 200 147.23 161.89 5.02 146.44 9.16 184.55 151.38 110.93 23.87 97.07 31.87 170.69 159.37 66.58 55.26 55.26 66.58 159.37 170.69 31.87 97.07 23.87 110.93 151.38 184.55 9.16 146.44 5.02 161.89 147.23 200 0 200 0 216 147.23 216 5.02 254.11 9.16 269.56 151.38 231.45 23.87 305.07 31.87 318.93 159.37 245.31 55.26 349.42 66.58 360.74 170.69 256.63 97.07 384.13 110.93 392.13 184.55 264.62 146.44 406.84 161.89 410.98 208 238.91 254.11 410.98 269.56 406.84 231.45 264.62 305.07 392.13 318.93 384.13 245.31 256.63 349.42 360.74 360.74 349.42 256.63 245.31 384.13 318.93 392.13 305.07 264.62 231.45 406.84 269.56 410.98 254.11 268.77 216 416 216 416 200"/>
</svg>