<?xml version="1.0" standalone="no"?>
<!DOCTYPE svg PUBLIC "-//W3C//DTD SVG 20010904//EN"
 "http://www.w3.org/TR/2001/REC-SVG-20010904/DTD/svg10.dtd">
<svg version="1.0" xmlns="http://www.w3.org/2000/svg"
 width="834.000000pt" height="834.000000pt" viewBox="0 0 834.000000 834.000000"
 preserveAspectRatio="xMidYMid meet">
<metadata>
Created by potrace 1.14, written by Peter Selinger 2001-2017
</metadata>
<g transform="translate(0.000000,834.000000) scale(0.100000,-0.100000)"
fill="#000000" stroke="none">
<path d="M3957 8334 c-1 -1 -38 -5 -82 -8 -44 -3 -101 -8 -127 -11 -26 -3 -64
-7 -86 -9 -21 -1 -43 -5 -48 -9 -6 -3 -19 -4 -30 -3 -10 2 -23 1 -29 -2 -5 -3
-21 -7 -35 -8 -33 -2 -88 -12 -175 -31 -38 -8 -81 -17 -95 -19 -14 -3 -43 -10
-65 -15 -22 -5 -49 -12 -61 -14 -42 -9 -231 -67 -309 -95 -44 -15 -83 -28 -88
-29 -4 0 -21 -8 -37 -16 -16 -8 -31 -15 -32 -14 -4 1 -59 -20 -83 -31 -20 -10
-76 -32 -85 -35 -3 0 -63 -29 -134 -63 -71 -34 -133 -62 -137 -62 -5 0 -9 -4
-9 -9 0 -5 -20 -17 -45 -28 -25 -10 -45 -21 -45 -25 0 -5 -5 -8 -11 -8 -6 0
-24 -9 -40 -21 -16 -11 -29 -17 -29 -12 0 4 -4 3 -8 -3 -4 -6 -38 -31 -77 -55
-158 -98 -310 -209 -470 -342 -149 -125 -427 -404 -512 -515 -10 -13 -30 -36
-46 -52 -15 -16 -27 -33 -27 -39 0 -5 -10 -17 -22 -25 -12 -9 -18 -16 -13 -16
5 0 -1 -9 -12 -20 -12 -11 -30 -33 -39 -50 -10 -16 -22 -30 -26 -30 -4 0 -8
-4 -8 -10 0 -5 -18 -33 -39 -61 -22 -29 -45 -64 -53 -78 -7 -14 -21 -35 -30
-45 -10 -11 -18 -26 -18 -33 0 -7 -4 -13 -9 -13 -5 0 -14 -14 -21 -31 -7 -17
-18 -36 -24 -42 -6 -7 -27 -42 -46 -79 -19 -37 -38 -68 -42 -68 -5 0 -8 -4 -8
-9 0 -4 -35 -82 -79 -172 -78 -164 -97 -207 -93 -221 1 -5 -3 -8 -8 -8 -6 0
-10 -9 -10 -20 0 -11 -5 -20 -12 -20 -6 0 -9 -3 -5 -6 3 -3 1 -18 -5 -33 -19
-46 -59 -156 -62 -171 -3 -8 -16 -51 -30 -94 -14 -43 -28 -88 -31 -100 -2 -12
-16 -68 -30 -126 -15 -58 -28 -114 -31 -125 -2 -11 -6 -31 -9 -45 -13 -60 -16
-77 -20 -110 -2 -19 -4 -35 -5 -35 -6 0 -39 -265 -44 -356 -1 -25 -5 -50 -8
-55 -6 -11 -2 -530 5 -594 3 -25 8 -74 12 -110 19 -167 31 -255 35 -255 1 0 3
-13 5 -30 2 -16 7 -45 10 -62 3 -18 6 -35 6 -38 1 -2 10 -42 20 -87 11 -46 22
-94 25 -108 8 -39 63 -227 89 -305 32 -97 50 -145 98 -262 14 -33 23 -64 20
-67 -4 -3 -1 -6 5 -6 7 0 12 -9 12 -20 0 -11 5 -20 10 -20 6 0 10 -6 10 -12 0
-18 141 -302 151 -306 5 -2 7 -8 3 -13 -3 -5 0 -9 5 -9 6 0 11 -6 11 -14 0 -7
7 -19 15 -26 8 -7 12 -16 9 -21 -3 -5 0 -9 5 -9 6 0 11 -4 11 -10 0 -16 187
-303 222 -341 10 -11 18 -21 18 -24 0 -6 90 -125 106 -140 6 -5 30 -35 55 -65
97 -120 453 -480 474 -480 3 0 17 -11 32 -25 16 -13 48 -42 73 -64 25 -22 50
-41 57 -41 6 0 13 -3 15 -7 4 -10 95 -83 103 -83 6 0 23 -13 56 -43 10 -9 21
-17 24 -17 3 0 45 -27 95 -59 49 -33 113 -73 142 -89 29 -16 76 -42 103 -58
28 -16 91 -49 140 -74 50 -25 92 -47 95 -50 3 -3 10 -6 17 -7 6 -1 41 -16 77
-33 37 -16 68 -30 70 -30 2 0 21 -8 42 -17 22 -9 42 -16 47 -15 4 1 7 -2 7 -8
0 -6 3 -9 8 -8 8 2 46 -8 77 -22 28 -11 49 -18 56 -16 3 0 13 -5 22 -13 10 -7
17 -11 17 -8 0 3 15 0 34 -8 18 -8 36 -11 40 -8 3 4 6 2 6 -4 0 -6 12 -13 28
-16 15 -2 61 -14 102 -26 41 -12 84 -24 95 -26 11 -3 34 -8 50 -12 17 -4 32
-7 35 -8 3 -1 19 -4 35 -8 70 -17 81 -19 98 -19 9 1 17 -2 17 -6 0 -4 10 -7
23 -8 12 0 40 -4 62 -7 22 -4 58 -10 80 -13 45 -6 80 -12 80 -14 0 -1 57 -6
155 -14 25 -2 45 -5 45 -6 0 -1 18 -3 40 -4 22 -1 46 -5 53 -9 7 -5 12 -3 12
5 0 10 2 10 9 -1 6 -9 10 -10 16 -2 4 8 11 9 18 3 18 -14 389 -12 406 2 11 8
13 8 7 -2 -4 -6 -3 -12 3 -12 5 0 13 5 17 11 4 8 9 7 15 -2 7 -12 9 -12 9 0 0
11 3 11 15 1 9 -8 15 -8 15 -2 0 6 16 9 35 8 19 -2 35 0 35 3 0 3 19 7 43 7
23 0 65 4 92 8 78 11 137 18 168 20 15 0 27 4 27 7 0 3 10 5 23 5 12 -1 27 0
32 3 6 3 15 6 20 7 51 8 84 15 105 19 14 3 36 8 50 11 14 3 41 9 60 14 19 5
48 11 64 14 16 3 33 11 38 18 6 10 8 10 8 -2 0 -9 3 -11 8 -5 4 6 12 10 17 11
18 2 130 35 145 43 19 10 78 24 83 19 2 -2 11 3 20 11 10 7 17 10 17 6 0 -4 6
-3 13 2 14 12 89 38 100 35 4 -1 7 3 7 9 0 5 4 8 9 4 5 -3 12 -1 16 5 4 6 11
8 16 5 5 -4 9 -1 9 4 0 6 7 11 15 11 13 0 43 12 165 67 125 56 333 166 417
220 29 18 56 33 62 33 5 0 11 3 13 8 4 9 53 42 91 61 15 8 27 18 27 23 0 4 6
8 13 8 8 0 22 9 32 20 10 11 24 20 32 20 7 0 13 3 13 8 0 4 18 18 40 32 22 14
40 28 40 33 0 4 8 11 18 14 9 4 22 12 28 17 6 6 29 25 50 41 21 17 46 38 56
47 10 10 20 18 23 18 3 0 13 8 23 17 10 10 63 59 117 108 156 143 326 324 437
465 135 173 308 425 308 450 0 6 4 10 8 10 4 0 18 19 30 42 12 24 36 67 52 96
16 28 27 52 24 52 -2 0 4 10 16 22 11 12 20 30 20 40 0 10 3 18 8 18 4 0 13
15 21 32 7 18 31 70 52 115 21 45 41 94 45 108 3 14 11 25 17 25 6 0 8 3 4 6
-3 3 4 27 15 52 20 48 79 213 103 291 8 25 12 48 9 53 -3 4 -1 8 3 8 7 0 36
95 48 158 2 9 4 17 5 17 2 0 8 23 15 60 3 17 8 41 11 55 10 40 16 74 19 95 2
11 4 20 5 20 2 0 9 36 14 75 3 19 8 49 11 65 7 32 14 83 19 150 2 22 5 42 6
45 1 3 2 13 1 22 -1 10 2 25 7 35 5 10 6 27 2 38 -5 13 -2 27 9 39 9 11 11 16
4 12 -9 -5 -12 2 -10 24 1 16 4 30 7 30 7 0 4 55 -4 68 -3 6 -2 13 3 16 11 7
9 337 -3 355 -6 10 -6 12 2 7 7 -4 12 -3 12 3 0 5 -6 12 -12 14 -10 4 -10 6 0
6 8 1 10 6 6 13 -4 7 -9 24 -10 38 -5 85 -25 267 -31 295 -2 11 -6 36 -7 55
-2 19 -5 35 -6 35 -1 0 -3 14 -5 30 -1 17 -7 53 -13 80 -7 28 -14 61 -16 75
-11 62 -40 185 -45 190 -3 3 -7 16 -9 30 -2 22 -54 202 -69 240 -4 8 -5 18 -5
23 1 4 -2 7 -6 7 -4 0 -9 11 -10 24 -1 13 -7 37 -13 52 -7 16 -12 32 -11 37 1
4 -3 7 -8 7 -5 0 -9 3 -8 8 2 8 -32 101 -62 168 -11 24 -30 65 -41 92 -22 49
-86 178 -135 272 -16 30 -32 57 -36 58 -5 2 -8 8 -8 13 0 14 -189 314 -225
356 -15 18 -25 32 -75 98 -24 33 -49 65 -55 72 -5 6 -20 24 -32 40 -53 68
-173 200 -264 292 -114 115 -234 223 -349 315 -121 96 -106 85 -170 131 -30
22 -58 44 -62 50 -5 6 -8 6 -8 0 0 -6 -3 -5 -8 1 -7 11 -131 93 -237 156 -168
101 -378 205 -555 276 -142 57 -162 64 -172 67 -5 2 -10 4 -13 5 -3 1 -8 3
-12 5 -5 1 -15 4 -23 7 -8 3 -40 13 -70 23 -30 9 -62 19 -70 23 -18 6 -11 4
-80 21 -30 8 -59 16 -65 20 -5 3 -17 6 -25 7 -8 0 -33 6 -55 12 -22 6 -51 13
-65 16 -14 2 -25 5 -25 6 0 2 -13 4 -151 28 -66 12 -135 24 -154 27 -19 3 -55
8 -80 10 -25 2 -45 4 -45 5 0 1 -36 5 -175 15 -46 3 -87 8 -89 11 -2 2 -11 -2
-19 -9 -10 -7 -13 -8 -9 -1 5 8 -46 11 -189 11 -107 -1 -196 -2 -197 -3z
m2813 -4157 c4 -2302 3 -2597 -10 -2603 -27 -10 -5182 -7 -5189 4 -5 8 -7
5144 -2 5187 1 7 874 10 2599 9 l2597 -1 5 -2596z"/>
</g>
</svg>
