<?xml version="1.0" standalone="no"?>
<!DOCTYPE svg PUBLIC "-//W3C//DTD SVG 20010904//EN"
 "http://www.w3.org/TR/2001/REC-SVG-20010904/DTD/svg10.dtd">
<svg version="1.0" xmlns="http://www.w3.org/2000/svg"
 width="500.000000pt" height="500.000000pt" viewBox="0 0 500.000000 500.000000"
 preserveAspectRatio="xMidYMid meet">
<metadata>
Created by potrace 1.14, written by Peter Selinger 2001-2017
</metadata>
<g transform="translate(0.000000,500.000000) scale(0.100000,-0.100000)"
fill="#000000" stroke="none">
<path d="M2196 4959 c-141 -18 -423 -87 -541 -131 -211 -80 -443 -206 -635
-347 -142 -104 -391 -350 -488 -482 -275 -373 -438 -773 -492 -1209 -13 -109
-13 -471 0 -580 54 -436 217 -836 492 -1209 97 -132 346 -378 488 -482 192
-141 424 -267 635 -347 126 -47 401 -112 555 -132 109 -13 471 -13 580 0 154
20 429 85 555 132 211 80 443 206 635 347 142 104 391 350 488 482 275 373
438 773 492 1209 13 109 13 471 0 580 -54 436 -217 836 -492 1209 -97 132
-346 378 -488 482 -192 141 -424 267 -635 347 -126 47 -401 112 -555 132 -100
12 -495 11 -594 -1z m1834 -2459 l0 -1530 -1530 0 -1530 0 0 1530 0 1530 1530
0 1530 0 0 -1530z"/>
</g>
</svg>
